<?xml version="1.0" encoding="UTF-8" standalone="no"?>
<!-- Created with Inkscape (http://www.inkscape.org/) -->

<svg
   width="1920"
   height="1080"
   viewBox="0 0 508 285.75"
   version="1.1"
   id="svg5"
   inkscape:version="1.1 (c68e22c387, 2021-05-23)"
   sodipodi:docname="Moplusplus-SVG-2.svg"
   xmlns:inkscape="http://www.inkscape.org/namespaces/inkscape"
   xmlns:sodipodi="http://sodipodi.sourceforge.net/DTD/sodipodi-0.dtd"
   xmlns="http://www.w3.org/2000/svg"
   xmlns:svg="http://www.w3.org/2000/svg">
  <sodipodi:namedview
     id="namedview7"
     pagecolor="#ffffff"
     bordercolor="#000000"
     borderopacity="1"
     inkscape:pageshadow="0"
     inkscape:pageopacity="0"
     inkscape:pagecheckerboard="true"
     inkscape:document-units="mm"
     showgrid="false"
     units="px"
     borderlayer="true"
     showborder="true"
     inkscape:zoom="0.33540614"
     inkscape:cx="1080.7792"
     inkscape:cy="484.48725"
     inkscape:window-width="1680"
     inkscape:window-height="987"
     inkscape:window-x="-8"
     inkscape:window-y="-8"
     inkscape:window-maximized="1"
     inkscape:current-layer="layer1" />
  <defs
     id="defs2" />
  <g
     inkscape:label="Layer 1"
     inkscape:groupmode="layer"
     id="layer1">
    <path
       style="fill:#000000;stroke-width:0.552512"
       d="m 245.45238,242.48774 c -3.99957,-0.46418 -10.33098,-2.02621 -13.38176,-3.30144 -1.73816,-0.72656 -3.99822,-1.32101 -5.02235,-1.32101 -6.02525,0 -17.84913,-4.92523 -24.13917,-10.05516 -1.97516,-1.61087 -4.81375,-3.49607 -6.30797,-4.18932 -6.78533,-3.14809 -14.74054,-10.55458 -18.80027,-17.5035 -1.19839,-2.05125 -2.50546,-3.85486 -2.9046,-4.00802 -1.54347,-0.59229 -7.63046,-8.95121 -9.87299,-13.55801 -1.29498,-2.66026 -2.79025,-6.76266 -3.32284,-9.11644 -0.53259,-2.35379 -1.77183,-6.02003 -2.75387,-8.1472 -3.53803,-7.66362 -5.00992,-16.1898 -4.12524,-23.89613 0.32936,-2.86906 0.32936,-6.24738 0,-9.11644 -0.88468,-7.70633 0.58721,-16.2325 4.12524,-23.89613 0.98204,-2.12717 2.22128,-5.79341 2.75387,-8.1472 0.53259,-2.35378 2.02786,-6.456183 3.32284,-9.116443 2.24253,-4.6068 8.32952,-12.96572 9.87299,-13.558 0.39914,-0.15317 1.70621,-1.95678 2.9046,-4.00803 4.05973,-6.94892 12.01494,-14.35541 18.80027,-17.5035 1.49422,-0.69325 4.33281,-2.57844 6.30797,-4.18932 6.29004,-5.129925 18.11392,-10.05516 24.13917,-10.05516 1.02413,0 3.28419,-0.594454 5.02235,-1.321009 7.2573,-3.033568 18.33224,-4.168694 25.55977,-2.619749 1.68387,0.360873 6.15922,0.747519 9.94521,0.859215 8.65127,0.255233 13.79162,1.566793 20.90813,5.334707 2.92238,1.54729 6.92951,3.317721 8.90474,3.93429 7.47834,2.334369 13.36677,6.108206 19.3283,12.387316 2.27382,2.39495 5.50601,5.37274 7.18265,6.6173 6.42813,4.77159 11.71514,11.64555 14.95184,19.43979 0.97421,2.34598 2.44038,5.13563 3.25816,6.19921 4.76996,6.203703 7.71231,14.537633 8.58299,24.310513 0.20305,2.27911 0.90201,6.13288 1.55325,8.56393 0.91152,3.4027 1.18406,6.00978 1.18406,11.32649 0,5.31672 -0.27254,7.92379 -1.18406,11.32649 -0.65124,2.43105 -1.3502,6.28482 -1.55325,8.56393 -0.87068,9.77288 -3.81303,18.10682 -8.58299,24.31051 -0.81778,1.06359 -2.28395,3.85323 -3.25816,6.19921 -3.2367,7.79424 -8.52371,14.6682 -14.95184,19.43979 -1.67664,1.24456 -4.90883,4.22235 -7.18265,6.6173 -5.96153,6.27911 -11.84996,10.05295 -19.3283,12.38731 -1.97523,0.61657 -5.98236,2.387 -8.90474,3.9343 -7.1464,3.78374 -12.24603,5.0783 -21.0302,5.33857 -3.85315,0.11417 -8.07986,0.44108 -9.3927,0.72647 -3.00245,0.65267 -10.05967,1.10636 -12.60845,0.81057 z m 12.24401,-1.78613 c 1.17471,-0.43596 1.08908,-0.51418 -0.93941,-0.85816 -1.22757,-0.20816 -4.21113,-1.17351 -6.63014,-2.14521 l -4.3982,-1.76674 -3.59133,0.9292 c -1.97523,0.51106 -4.63333,0.94616 -5.90689,0.9669 -5.13505,0.0836 -2.4593,1.57287 5.63064,3.13391 4.04182,0.77991 13.44951,0.62551 15.83533,-0.2599 z m 21.36317,-2.27273 c 2.22629,-0.62882 5.63811,-1.94523 7.58182,-2.92537 l 3.53401,-1.78206 h -7.08212 c -5.29184,0 -7.32021,0.19752 -8.02398,0.78135 -0.51803,0.42974 -2.98057,1.8749 -5.47231,3.21146 l -4.53044,2.43011 4.97261,-0.28609 c 2.73493,-0.15735 6.79412,-0.80058 9.02041,-1.4294 z m -11.31187,-1.03177 c 2.47583,-1.16914 5.10411,-2.62359 5.84062,-3.23211 l 1.33911,-1.10639 -4.10167,-1.23461 c -2.25592,-0.67903 -5.42563,-1.9457 -7.0438,-2.81482 l -2.94213,-1.58022 -2.81106,2.01954 c -1.54608,1.11075 -4.52875,2.92341 -6.62816,4.02813 l -3.8171,2.00858 2.77887,1.19544 c 7.85518,3.37921 11.43422,3.5267 17.38532,0.71646 z m -26.57727,-1.26328 c 1.74731,-0.3423 3.17694,-0.78503 3.17694,-0.98386 0,-0.19882 -0.78304,-0.82405 -1.7401,-1.3894 -0.95705,-0.56534 -3.54759,-2.74484 -5.75676,-4.84333 l -4.01666,-3.81544 -3.47892,1.14207 c -1.91341,0.62814 -4.85489,1.28302 -6.53663,1.45528 -1.68173,0.17226 -3.40796,0.42411 -3.83607,0.55965 -1.16491,0.36883 1.65902,3.11081 6.57974,6.38883 l 4.14384,2.76048 4.14384,-0.32596 c 2.27911,-0.17928 5.57346,-0.60602 7.32078,-0.94832 z m -16.74344,-0.94413 c -1.35099,-0.86381 -3.72289,-2.71673 -5.27089,-4.1176 -2.6775,-2.42299 -3.04071,-2.57514 -7.45891,-3.12443 -2.5544,-0.31757 -5.4981,-0.82239 -6.54156,-1.12182 -1.04345,-0.29942 -1.979,-0.4626 -2.07899,-0.36261 -0.3045,0.30451 6.00881,4.54113 8.9488,6.00519 4.02529,2.00453 10.70312,4.09478 13.50657,4.22775 1.14023,0.0541 0.9676,-0.18126 -1.10502,-1.50648 z m 25.99801,-2.33758 c 1.97522,-0.93347 4.90945,-2.69143 6.5205,-3.90656 l 2.92918,-2.20932 -2.10041,-1.53631 c -2.25995,-1.65298 -6.91941,-6.47926 -8.82061,-9.13639 l -1.16991,-1.63507 -3.39589,3.14399 c -1.86774,1.72919 -4.87564,3.95676 -6.68424,4.95014 -1.80859,0.99339 -3.2913,2.0939 -3.2949,2.44559 -0.0132,1.28651 10.26033,9.58284 11.86506,9.58159 0.30794,-2.3e-4 2.17599,-0.76419 4.15122,-1.69766 z m 42.23903,-1.03557 c 1.70497,-0.66727 10.24957,-8.96748 10.24957,-9.9564 0,-0.35133 -1.98525,-0.57021 -5.17175,-0.57021 -2.84445,0 -6.27245,-0.15087 -7.61776,-0.33526 l -2.44601,-0.33527 -2.016,3.03633 c -1.10881,1.66997 -3.26833,4.28865 -4.79895,5.81926 -1.76991,1.76991 -2.53694,2.89631 -2.10711,3.09435 1.13622,0.5235 12.17333,-0.0739 13.90801,-0.7528 z m -11.26553,-4.32207 c 3.2744,-3.6929 5.20761,-6.72334 4.61355,-7.23205 -0.27641,-0.23671 -2.28274,-1.11005 -4.4585,-1.94077 -2.17576,-0.83072 -5.34499,-2.48344 -7.04271,-3.6727 l -3.08678,-2.16229 -1.18244,2.32972 c -1.76976,3.48687 -4.24075,7.02827 -6.69408,9.59388 l -2.19127,2.29157 3.51268,1.64883 c 3.34213,1.56879 7.74509,3.121 10.14281,3.57574 1.4239,0.27005 3.48705,-1.16162 6.38674,-4.43193 z m 21.79136,0.64659 c 4.84984,-2.3713 12.3781,-8.00166 13.49879,-10.09568 0.49902,-0.93242 0.12148,-0.87531 -3.49386,0.52853 -2.22933,0.86565 -5.0309,1.73024 -6.22571,1.92129 -1.68448,0.26937 -2.47691,0.79737 -3.52831,2.35094 -0.74577,1.10195 -2.75404,3.40876 -4.46284,5.12623 -3.67081,3.68946 -3.04046,3.71471 4.21193,0.16869 z m -88.47874,-1.46414 c -0.23008,-0.37985 -1.22525,-1.81964 -2.21146,-3.19952 -0.98622,-1.37989 -2.53812,-4.08417 -3.44867,-6.00951 l -1.65553,-3.50063 -4.6446,-0.21545 c -2.55454,-0.1185 -5.9878,-0.56386 -7.62948,-0.98971 -1.64168,-0.42585 -3.046,-0.71315 -3.1207,-0.63844 -0.30992,0.30992 4.1712,7.16233 6.28963,9.61794 2.40888,2.79229 5.18265,4.00624 11.52508,5.04398 4.30844,0.70495 5.37423,0.68129 4.89573,-0.10866 z m 12.21922,-0.78432 c 5.56604,-1.39942 5.56585,-1.39913 3.24952,-4.88778 -1.10084,-1.65799 -2.78721,-5.1032 -3.74748,-7.65602 l -1.74594,-4.6415 -1.56336,0.81912 c -2.5334,1.32739 -7.52873,2.95475 -11.23954,3.66158 l -3.45696,0.65848 1.85745,3.85986 c 1.02161,2.12291 2.911,5.1869 4.19865,6.80886 l 2.3412,2.94901 3.40215,-0.3707 c 1.87119,-0.20388 4.88812,-0.74429 6.70431,-1.20091 z m 37.37654,-3.93391 c 1.64383,-2.06323 3.71635,-5.14098 4.60561,-6.83943 l 1.61683,-3.08811 -3.00764,-3.33221 c -6.43675,-7.13138 -9.3849,-14.15732 -9.78916,-23.32917 -0.19453,-4.4135 -0.0259,-6.66903 0.70236,-9.3927 1.63339,-6.10907 1.67269,-5.70432 -0.68238,-7.02794 l -2.14638,-1.20634 -1.70138,1.70137 -1.70137,1.70138 1.57581,3.38611 c 5.4719,11.75803 4.02237,26.62538 -3.58618,36.78229 -0.78405,1.04665 -1.42554,2.07869 -1.42554,2.29343 0,1.87554 10.07549,12.08605 11.93857,12.09855 0.33664,0.002 1.95702,-1.684 3.60085,-3.74723 z m -26.7969,-0.44578 c 1.84742,-1.09288 4.81781,-3.29185 6.60087,-4.88661 l 3.24193,-2.89955 -1.75571,-3.81545 c -5.55857,-12.07967 -4.316,-25.84428 3.29428,-36.49253 1.75682,-2.45813 1.66628,-3.32611 -0.55679,-5.33796 -1.01764,-0.92096 -1.20917,-0.92651 -2.97123,-0.0862 l -1.88348,0.89816 0.002,7.27508 c 0.002,6.54096 -0.15381,7.7211 -1.54032,11.69517 -2.59951,7.45087 -7.03423,13.63033 -12.6884,17.68037 -1.96745,1.40926 -3.08812,2.61044 -3.0929,3.31507 -0.0198,2.92015 5.918,14.64156 7.4171,14.64156 0.31566,0 2.08545,-0.89418 3.93287,-1.98707 z m -42.09558,-1.6881 c -1.12478,-1.47329 -2.67041,-3.95354 -3.43474,-5.51167 -1.20181,-2.44997 -1.78166,-2.99542 -4.28919,-4.03473 -1.59472,-0.66098 -4.2914,-2.03994 -5.9926,-3.06434 -2.72496,-1.64089 -3.01847,-1.71963 -2.46612,-0.66162 1.12838,2.16138 5.95497,7.83831 8.40647,9.88751 2.88366,2.41044 9.28201,6.60282 9.59676,6.28807 0.12347,-0.12347 -0.69579,-1.42992 -1.82058,-2.90322 z m 108.7221,0.011 c 1.13739,-0.70296 5.95975,-12.31484 5.95975,-14.35066 0,-0.11993 -1.80257,-0.22173 -4.00571,-0.22622 -3.37316,-0.007 -8.34426,-0.81107 -12.07247,-1.953 -0.71587,-0.21927 -1.00824,0.48081 -1.53638,3.67882 -0.35875,2.17229 -1.38295,5.83137 -2.27601,8.13128 -0.89306,2.29992 -1.51661,4.2888 -1.38566,4.41975 0.96425,0.96425 13.83384,1.21634 15.31648,0.30002 z m 9.36693,-2.49682 c 2.32978,-0.89045 4.87518,-2.12181 5.65646,-2.73637 1.29797,-1.02098 5.88161,-9.58674 6.68107,-12.48539 l 0.33541,-1.21609 -3.20558,1.29374 c -1.76307,0.71155 -5.11463,1.71488 -7.4479,2.22961 l -4.24232,0.93589 -1.19661,3.9396 c -0.65814,2.16678 -1.93438,5.40108 -2.83608,7.18735 l -1.63946,3.24775 1.82953,-0.38855 c 1.00624,-0.2137 3.73571,-1.11709 6.06548,-2.00754 z m -24.88626,-0.88353 c 1.39526,-3.22731 3.2462,-10.27002 3.2462,-12.35164 0,-1.35013 -0.49164,-1.79535 -4.00571,-3.62747 -5.94252,-3.09823 -12.25187,-9.57666 -15.25034,-15.65904 -2.47021,-5.01081 -3.92428,-10.64897 -3.93985,-15.27678 l -0.01,-2.85212 -2.18977,-0.36996 c -2.5772,-0.43541 -3.05943,-0.20585 -4.19974,1.99925 l -0.85652,1.65634 3.21483,3.43667 c 8.15885,8.72183 11.43054,21.58891 8.45129,33.23766 -0.60776,2.37633 -1.10502,4.50026 -1.10502,4.71983 0,1.26858 12.16325,7.58445 14.79932,7.68468 0.39065,0.0149 1.22085,-1.15399 1.8449,-2.59742 z m -81.86027,-4.14384 c -0.0108,-0.37985 -0.37989,-2.18242 -0.82014,-4.00571 -0.44025,-1.82329 -0.80434,-5.34614 -0.80909,-7.82856 l -0.009,-4.51347 -5.66324,0.0934 c -3.11479,0.0514 -7.00538,-0.10653 -8.64576,-0.35088 l -2.98252,-0.44427 0.35942,3.48309 c 0.50025,4.84784 2.53087,11.43639 3.72106,12.07336 1.3611,0.72844 9.08334,2.07441 12.24415,2.13411 1.76721,0.0334 2.618,-0.176 2.60475,-0.64105 z m 6.76075,-0.47382 c 1.61033,-0.33657 4.6724,-1.33013 6.8046,-2.2079 l 3.87672,-1.59597 0.0186,-7.59917 c 0.0167,-6.84629 0.17038,-8.0371 1.55056,-12.01927 2.52258,-7.27836 6.86207,-13.43736 12.11848,-17.19967 1.57818,-1.12959 3.07503,-2.22869 3.32634,-2.44244 0.25131,-0.21375 0.14624,-1.42562 -0.23349,-2.69303 l -0.6904,-2.30438 -2.51818,0.1645 -2.51817,0.16451 -1.16703,4.42009 c -1.53784,5.82455 -2.04147,6.97791 -4.97134,11.38507 -4.46757,6.72019 -11.90245,12.25985 -19.5699,14.58136 -3.24251,0.98176 -3.2657,1.00378 -3.43061,3.25759 -0.22034,3.01123 0.39268,9.43583 1.17894,12.3558 0.71546,2.65701 1.18203,2.78689 6.22487,1.73291 z m 38.85401,-6.29445 c 2.57101,-5.20703 3.73661,-10.10311 3.74877,-15.74658 0.0119,-5.52496 -0.81593,-9.43053 -3.04491,-14.3653 l -1.62216,-3.59133 -1.36146,1.65754 c -1.9773,2.40731 -5.04509,8.88003 -6.01248,12.68572 -1.08065,4.25125 -1.07189,12.42492 0.0178,16.60856 0.47019,1.80518 1.51277,4.7481 2.31685,6.53982 l 1.46197,3.25769 1.29297,-1.58927 c 0.71115,-0.8741 2.15233,-3.32968 3.20264,-5.45685 z m 73.84539,3.9886 c 4.20531,-3.515 8.98091,-10.12265 11.25938,-15.57877 l 0.91767,-2.19749 -2.53017,2.33223 c -1.3916,1.28273 -3.87501,3.19252 -5.51872,4.24398 -2.048,1.3101 -3.10954,2.39794 -3.37299,3.45658 -0.21145,0.84965 -1.34708,3.60265 -2.52364,6.11776 -2.28467,4.88394 -2.21083,4.95182 1.76847,1.62571 z m -137.64809,-3.75519 c -0.61752,-2.22838 -1.28216,-5.6075 -1.47699,-7.50915 l -0.35424,-3.45754 -3.37898,-1.12637 c -1.85844,-0.6195 -4.83915,-2.00703 -6.6238,-3.08338 -1.78464,-1.07635 -3.38691,-1.81491 -3.56058,-1.64124 -0.46317,0.46317 0.87301,6.47464 2.22357,10.00387 1.40468,3.67064 3.81994,5.89841 9.75122,8.99423 2.31779,1.20977 4.28805,2.12569 4.37836,2.03538 0.0903,-0.0903 -0.34105,-1.98742 -0.95856,-4.2158 z m 83.7111,0.26029 c 1.2498,-5.6176 0.86343,-14.54256 -0.83899,-19.38038 -2.22889,-6.33388 -9.28411,-15.99552 -10.66908,-14.61055 -1.00425,1.00425 -2.04212,7.01151 -2.05069,11.86953 -0.0103,5.82366 1.031,10.27109 3.66204,15.64104 1.77901,3.63098 7.38555,10.68301 8.49325,10.68301 0.25766,0 0.88922,-1.89119 1.40347,-4.20265 z m -38.59351,-6.01882 c 3.41469,-3.76392 6.91105,-10.44082 8.23264,-15.72167 0.87153,-3.48242 0.93694,-13.30305 0.0942,-14.14577 -0.57266,-0.57265 -5.02805,2.78365 -7.9738,6.00677 -6.67196,7.30019 -10.4849,20.04016 -8.68751,29.02712 l 0.34265,1.71325 2.49216,-1.78231 c 1.37068,-0.98027 3.84552,-3.2741 5.49963,-5.09739 z m 76.8453,-1.27984 c 0.13444,-4.3428 -0.52684,-10.87457 -1.16562,-11.51335 -0.1,-0.1 -2.15213,-0.53108 -4.56035,-0.95802 -12.34413,-2.18843 -21.5008,-8.97601 -26.66028,-19.76252 l -2.58133,-5.39657 -2.31556,-0.0209 c -2.63936,-0.0238 -2.68911,0.0241 -3.13494,3.01793 l -0.32911,2.21005 3.99483,1.88505 c 3.03143,1.43045 5.06565,2.96276 8.4351,6.35388 6.56618,6.60841 9.93371,13.87625 10.58675,22.84844 l 0.3324,4.56682 2.81801,0.7854 c 4.55992,1.27088 4.81611,1.30289 9.72441,1.21515 l 4.69635,-0.084 z m 9.69706,3.34418 c 5.87292,-1.91807 6.36139,-2.40122 7.0722,-6.99525 0.54901,-3.54828 0.48214,-10.4407 -0.10701,-11.02985 -0.14112,-0.14113 -1.73131,0.24127 -3.53375,0.84977 -1.80244,0.6085 -5.47647,1.37715 -8.16451,1.70811 l -4.88736,0.60176 0.43453,2.53298 c 0.23899,1.39314 0.43452,5.21732 0.43452,8.49818 v 5.9652 l 2.21005,-0.35816 c 1.21552,-0.19699 4.15912,-0.99472 6.54133,-1.77274 z m -29.1694,-9.75703 c -1.56214,-7.00283 -6.10947,-14.78843 -10.95799,-18.76143 -2.88399,-2.36322 -8.6269,-5.86781 -9.61547,-5.86781 -1.83733,0 0.0162,10.94722 2.77546,16.39238 3.32897,6.56941 8.59976,11.94169 15.3407,15.63609 l 2.9849,1.63589 0.17231,-2.56254 c 0.0948,-1.40939 -0.22019,-4.32205 -0.69991,-6.47258 z M 173.85678,197.48 c -0.48725,-1.3389 -1.17364,-4.07557 -1.52531,-6.08148 -0.61501,-3.50808 -0.81318,-3.83072 -5.19761,-8.46252 -2.50702,-2.64847 -4.55822,-4.46485 -4.55822,-4.03641 0,1.42158 2.12426,6.98103 4.11493,10.76928 1.90319,3.62177 7.36544,10.93217 7.82502,10.4726 0.1249,-0.12491 -0.17156,-1.32257 -0.65881,-2.66147 z m 161.50575,-4.64441 c 3.89991,-3.72711 4.07609,-4.00804 4.85103,-7.73516 0.44228,-2.12717 0.80846,-5.43532 0.81374,-7.35143 l 0.01,-3.48385 -2.75761,2.37882 c -1.51669,1.30836 -4.30995,3.31921 -6.20725,4.46856 l -3.44963,2.08974 -0.0635,6.19794 c -0.0349,3.40887 -0.261,6.91687 -0.50242,7.79556 l -0.43894,1.59762 1.84904,-1.04511 c 1.01698,-0.57481 3.67015,-2.78552 5.89593,-4.91269 z m -130.51954,1.8415 c 0.15042,-0.15043 0.75438,-2.15377 1.34214,-4.45187 3.28442,-12.84194 13.11503,-23.07779 25.31633,-26.35993 2.31974,-0.62402 2.34818,-0.66167 2.34818,-3.11034 0,-2.15232 -0.18661,-2.54963 -1.41725,-3.01752 -2.53313,-0.96309 -3.47705,-0.64802 -4.59284,1.53308 -2.67672,5.2323 -8.93995,11.16374 -15.06638,14.26823 -4.44979,2.25489 -10.22708,3.5726 -15.85857,3.61711 l -5.16561,0.0408 -1.08169,2.44534 c -1.32618,2.99805 -2.65361,9.07215 -2.66653,12.20163 -0.009,2.25685 0.0495,2.33303 2.06232,2.66968 1.13956,0.19059 2.32055,0.44653 2.62443,0.56873 0.75631,0.30415 11.81477,-0.0643 12.15547,-0.40498 z m 7.19695,-2.17063 c 7.32999,-2.74251 14.95683,-9.82706 18.52699,-17.2097 1.97826,-4.0908 3.72285,-10.10704 3.10887,-10.72101 -0.63574,-0.63574 -8.6708,2.75356 -12.12802,5.11577 -7.00653,4.78735 -11.83265,11.62894 -14.18099,20.10318 -0.6285,2.26804 -1.14273,4.21781 -1.14273,4.33284 0,0.31893 2.4733,-0.37047 5.81588,-1.62108 z m -24.77661,-3.40032 c 0.34211,-2.50702 1.1576,-6.14738 1.81219,-8.08968 0.6546,-1.94231 0.98919,-3.70553 0.74355,-3.91828 -0.24564,-0.21275 -1.81409,-0.67896 -3.48543,-1.03602 -1.67135,-0.35706 -5.02729,-1.61941 -7.45764,-2.80521 -2.43035,-1.18582 -4.48656,-2.08829 -4.56935,-2.00549 -0.49535,0.49535 -1.7858,9.24836 -1.7858,12.11293 V 186.78 l 3.72945,2.29633 c 3.48979,2.14875 8.53456,4.4896 9.82278,4.5579 0.31252,0.0166 0.84813,-2.02107 1.19025,-4.52809 z m 157.64163,-8.73834 c 1.16571,-2.29906 2.50847,-5.53125 2.9839,-7.18265 0.91778,-3.18783 2.08249,-10.55133 1.72543,-10.9084 -0.11695,-0.11695 -0.70105,0.74382 -1.298,1.91282 -0.59695,1.16901 -2.18985,3.62503 -3.53978,5.45784 -2.45133,3.32817 -2.45483,3.33965 -2.78343,9.11644 -0.18095,3.18124 -0.49042,6.28133 -0.6877,6.88909 l -0.3587,1.10503 0.9194,-1.10503 c 0.50567,-0.60776 1.87317,-2.98607 3.03888,-5.28514 z m -35.91374,5.18736 c 0,-0.20571 -1.01861,-2.47846 -2.26357,-5.05055 -5.1046,-10.54609 -17.83447,-19.43844 -27.82717,-19.43844 -1.84783,0 -1.9957,0.11123 -1.65272,1.24316 0.20717,0.68373 1.22994,2.88466 2.27281,4.89097 4.78336,9.20225 14.17241,15.98627 25.08851,18.12756 3.18893,0.62554 4.38214,0.68743 4.38214,0.2273 z m 9.48222,-0.40274 c 2.22987,-0.42723 5.11826,-1.20303 6.41863,-1.72399 2.63242,-1.05461 2.5864,-0.49198 0.57548,-7.03495 -0.63125,-2.05389 -1.93345,-5.03745 -2.89378,-6.63014 -1.71005,-2.83606 -1.79123,-2.8901 -3.93486,-2.61954 -1.20383,0.15194 -5.29666,0.27626 -9.09518,0.27626 -5.58324,0 -7.64736,-0.23344 -10.77398,-1.21847 -6.24856,-1.9686 -12.6719,-6.38176 -17.02917,-11.69992 l -1.53062,-1.86815 -2.18472,0.98517 c -2.26312,1.02052 -2.45977,1.51401 -1.8394,4.61586 0.31012,1.55064 0.54944,1.72744 2.34817,1.73477 5.82839,0.0238 15.01251,3.89702 20.38094,8.59534 4.44731,3.89216 8.83633,10.54427 10.81909,16.39764 0.41083,1.21285 3.09642,1.27128 8.7394,0.19012 z M 172.9379,172.42553 c 0.4487,-1.53912 0.18308,-1.90958 -5.0448,-7.03612 -3.03513,-2.97631 -5.63284,-5.29705 -5.77268,-5.15722 -0.13983,0.13984 -0.37744,3.24546 -0.52801,6.90138 l -0.27376,6.64713 1.95069,2.93795 c 1.07288,1.61587 3.27131,4.28712 4.88542,5.93612 l 2.93472,2.99817 0.68739,-5.80137 c 0.37806,-3.19075 0.90052,-6.53247 1.16103,-7.42604 z m 159.87855,6.92733 c 2.24213,-1.48982 5.02061,-3.60117 6.1744,-4.69189 1.90405,-1.79997 2.06627,-2.17489 1.75656,-4.05951 -0.48271,-2.93725 -2.44413,-9.53278 -3.36435,-11.31305 l -0.77613,-1.50151 -4.27703,2.90584 c -2.35237,1.59821 -5.66757,3.4679 -7.36712,4.15486 l -3.09009,1.24902 2.40249,4.787 c 1.32137,2.63285 2.69949,6.22498 3.0625,7.9825 0.36301,1.75752 0.82701,3.1955 1.0311,3.1955 0.20409,0 2.20555,-1.21894 4.44767,-2.70876 z m -127.38078,-4.20719 c 7.80962,-1.97649 15.6416,-7.49504 20.08899,-14.15506 1.23604,-1.85098 2.24735,-3.58573 2.24735,-3.85498 0,-0.8014 -8.8997,-0.55557 -12.45356,0.344 -7.90165,2.0001 -16.41564,8.08695 -20.80607,14.87475 -1.60711,2.48468 -1.95029,3.39367 -1.41965,3.76026 0.93013,0.64257 8.24401,0.0684 12.34294,-0.96897 z m -13.06691,-1.41422 c 3.35112,-5.96252 9.86275,-11.8952 16.66376,-15.18218 1.6461,-0.79557 2.37133,-1.30226 1.61163,-1.12598 -8.27833,1.92093 -14.60355,1.76868 -22.10366,-0.53201 l -4.93584,-1.5141 -1.13506,1.32509 c -4.00417,4.67452 -8.09231,12.38853 -7.1605,13.5113 1.18128,1.42336 12.06252,5.60066 14.92852,5.73106 0.47583,0.0217 1.43485,-0.97428 2.13115,-2.21318 z m -31.4279,-11.02013 c 0.58226,-4.62732 0.56617,-4.75588 -0.93076,-7.43419 -0.8378,-1.49898 -2.06907,-4.22834 -2.73615,-6.06522 l -1.21288,-3.33981 -0.39773,2.63078 c -0.7218,4.77436 0.43825,12.41912 2.9125,19.19343 1.50428,4.11861 1.51428,4.13039 1.643,1.93379 0.0712,-1.21552 0.39613,-4.32898 0.72202,-6.91878 z m 186.69945,0.40913 c 1.9453,-3.78327 2.17218,-4.61265 1.88933,-6.90639 -0.35836,-2.90596 -1.60476,-8.21055 -2.45409,-10.44445 -0.54867,-1.44312 -0.5782,-1.42061 -2.58396,1.96995 -1.11593,1.88636 -3.19126,4.72419 -4.61183,6.30626 l -2.58289,2.87652 1.02365,2.01542 c 1.21849,2.39902 3.26032,9.54318 3.28963,11.51001 0.0199,1.33462 0.0995,1.3007 1.92006,-0.81767 1.04461,-1.21552 2.89416,-4.14487 4.1101,-6.50965 z m -94.6265,5.58458 c 0.70332,-0.66074 1.27876,-1.38687 1.27876,-1.61364 0,-0.62406 -3.13911,-1.18293 -4.39878,-0.78312 -1.09824,0.34857 -1.09739,0.36693 0.0915,1.97497 0.66002,0.89271 1.32373,1.62312 1.47491,1.62312 0.15117,0 0.85031,-0.5406 1.55363,-1.20133 z m -72.62248,-11.02785 2.49439,-3.06243 -2.98151,-1.78332 c -1.63983,-0.98083 -4.65566,-3.38602 -6.70184,-5.34488 -4.31883,-4.13451 -3.90874,-4.28828 -7.36278,2.76086 -3.25094,6.63464 -3.29086,7.47936 -0.52293,11.0671 1.27254,1.64945 3.68778,4.13022 5.3672,5.51281 l 3.05349,2.5138 2.0798,-4.30075 c 1.14388,-2.36541 3.20227,-5.67884 4.57418,-7.36319 z m 81.24887,9.74288 0.92216,-1.93379 h -1.81925 c -1.89444,0 -4.45346,1.51804 -3.35195,1.98842 0.33675,0.14381 1.08264,0.61755 1.65753,1.05275 1.45964,1.10497 1.55619,1.06371 2.59151,-1.10738 z m -16.82278,-0.33031 c 2.0963,-0.73077 2.17032,-1.19443 0.37814,-2.36871 -1.48908,-0.97568 -3.61076,-1.19648 -3.61076,-0.37576 0,0.68715 1.02163,3.35103 1.28516,3.35103 0.11411,0 0.99047,-0.27295 1.94746,-0.60656 z m 69.66983,-0.51406 c 2.26311,-0.2937 4.37647,-0.80437 4.69635,-1.13481 0.41242,-0.42605 -0.63979,-1.7583 -3.61718,-4.57989 -4.58309,-4.34326 -10.08035,-7.47425 -15.69164,-8.93726 -4.03141,-1.05109 -12.9045,-1.12582 -16.17479,-0.13623 l -2.36198,0.71474 2.51911,2.87343 c 4.98364,5.68458 13.11964,10.00407 21.00727,11.15299 4.49471,0.6547 4.92423,0.6568 9.62286,0.047 z m -58.26089,-0.53691 c 0.19041,-0.3081 -0.22289,-0.54877 -0.93429,-0.54405 -1.02637,0.007 -1.11375,0.11316 -0.44699,0.54405 1.02808,0.66439 0.97066,0.66439 1.38128,0 z m -7.77556,-1.16281 c -1.66809,-0.65346 -2.08438,-0.56182 -1.36814,0.3012 0.36331,0.43776 1.0593,0.64291 1.54666,0.45589 0.76405,-0.29319 0.73946,-0.39747 -0.17852,-0.75709 z m 20.75112,-1.73788 c 0.0102,-1.8345 -0.94561,-1.95553 -2.95584,-0.37428 -1.89061,1.48715 -1.83563,1.89801 0.33987,2.53998 2.06004,0.6079 2.60303,0.15837 2.61597,-2.1657 z m -7.45745,-0.2189 c 1.52326,-0.70934 3.02668,-1.29214 3.34095,-1.29511 0.9715,-0.009 6.07864,-5.65975 7.71381,-8.5346 4.70316,-8.26885 2.91079,-19.0907 -4.34002,-26.20387 -4.79886,-4.70777 -12.97985,-6.81347 -19.7739,-5.0896 -3.20482,0.81316 -10.41558,4.65271 -10.41558,5.54604 0,0.20598 -0.85328,1.37139 -1.89617,2.58977 -5.52086,6.44988 -5.52086,19.35306 0,25.80294 1.04289,1.21839 1.89617,2.38379 1.89617,2.58977 0,0.86316 7.16072,4.73177 10.22146,5.52219 4.35518,1.12471 9.64058,0.75482 13.25328,-0.92753 z m 65.30813,-0.20784 c 2.38399,-1.22233 5.39734,-3.14921 6.69634,-4.28197 l 2.36181,-2.05955 -2.05077,-3.03882 c -1.12793,-1.67135 -3.606,-4.57236 -5.50683,-6.44669 l -3.45606,-3.40789 -4.876,2.44722 c -6.54263,3.28368 -10.72772,4.2809 -17.84166,4.25129 l -5.78303,-0.0241 3.92546,0.99688 c 6.74721,1.71348 13.99504,6.20731 18.10928,11.22819 1.15276,1.4068 2.54391,2.55781 3.09143,2.55781 0.54752,0 2.94603,-1.00008 5.33003,-2.2224 z m -63.09108,1.11738 c 0.43475,-0.70345 -0.84528,-0.70345 -1.93379,0 -0.67378,0.43543 -0.60238,0.53718 0.38177,0.54406 0.6658,0.004 1.36421,-0.24018 1.55202,-0.54406 z m -25.92286,-1.10502 c 1.70152,0 1.69516,-0.79619 -0.02,-2.51141 -2.07754,-2.07752 -3.06395,-1.78359 -3.06395,0.91299 0,1.84218 0.16445,2.20605 0.87396,1.93379 0.48067,-0.18446 1.47519,-0.33537 2.21004,-0.33537 z m 4.09865,-0.25682 c 0,-0.14125 -0.49166,-0.51995 -1.09259,-0.84155 -0.89139,-0.47706 -1.03312,-0.42977 -0.76966,0.25682 0.2862,0.74581 1.86225,1.24068 1.86225,0.58473 z m 27.82539,-2.78199 c 0.17491,-0.45583 0.10764,-0.82877 -0.1495,-0.82877 -0.25713,0 -0.77703,0.37294 -1.15533,0.82877 -0.55993,0.67467 -0.53214,0.82876 0.14949,0.82876 0.46052,0 0.98042,-0.37294 1.15534,-0.82876 z m 5.14497,-1.726 c -0.17871,-1.10123 -0.43566,-2.11298 -0.571,-2.24833 -0.53175,-0.53175 -2.57297,1.27212 -3.07763,2.71979 -0.5263,1.50974 -0.50264,1.53079 1.71995,1.53079 h 2.2536 z m -63.37097,-2.04128 c 3.85596,-1.36104 10.63884,-5.44077 12.22673,-7.35405 0.91193,-1.09881 0.28152,-1.50781 -4.75535,-3.08526 -4.56543,-1.4298 -12.61317,-1.663 -17.40412,-0.50432 -4.36993,1.05686 -11.52247,4.60652 -14.36503,7.12907 -2.41713,2.14502 -2.43041,2.1763 -1.20258,2.83342 5.85189,3.13184 18.07488,3.60213 25.50035,0.98114 z m 24.87549,1.62488 c 0,-0.11473 -0.37294,-0.51812 -0.82876,-0.89642 -0.67877,-0.56332 -0.82877,-0.52557 -0.82877,0.20861 0,0.49303 0.37295,0.89641 0.82877,0.89641 0.45582,0 0.82876,-0.0939 0.82876,-0.2086 z m -19.89041,-1.41489 c 1.36746,-0.30775 4.62246,-0.56562 7.23332,-0.57304 l 4.74702,-0.0135 0.63997,-2.13602 c 0.84038,-2.80496 0.91424,-2.57695 -1.27237,-3.92835 l -1.91233,-1.18188 -3.75091,2.88413 c -2.063,1.58627 -5.24269,3.59669 -7.06598,4.46759 -1.82329,0.8709 -2.81781,1.46132 -2.21005,1.31204 0.60776,-0.14929 2.22386,-0.52321 3.59133,-0.83096 z m 16.47055,-2.08378 c -1.06524,-2.22254 -2.37493,-2.24253 -3.01177,-0.046 -0.51111,1.76288 -0.46656,1.83745 1.43265,2.39782 2.30786,0.68095 2.73079,0.0511 1.57912,-2.35183 z m -69.64256,-1.2168 c 1.14458,-2.97527 3.02656,-6.58325 4.70856,-9.02684 0.51904,-0.75407 0.51904,-1.17973 0,-1.93379 -1.682,-2.4436 -3.56398,-6.05158 -4.70856,-9.02685 -0.68771,-1.78768 -1.43267,-3.25397 -1.65547,-3.25843 -0.67205,-0.0134 -3.00122,5.01258 -4.29146,9.2604 l -1.21246,3.99177 1.21246,3.99178 c 1.29024,4.24781 3.61941,9.27384 4.29146,9.26039 0.2228,-0.004 0.96776,-1.47075 1.65547,-3.25843 z m 180.39444,-6.16929 c 1.1432,-1.95 1.93918,-3.91903 1.76884,-4.3756 -0.78172,-2.09534 -4.07831,-7.05213 -6.35089,-9.5493 l -2.5035,-2.7509 -1.59192,2.41996 c -0.87555,1.33099 -3.33397,4.22254 -5.46316,6.42568 l -3.87125,4.00571 3.87125,4.00571 c 2.12919,2.20314 4.58761,5.09469 5.46316,6.42568 l 1.59192,2.41996 2.5035,-2.74071 c 1.37692,-1.50739 3.43885,-4.33617 4.58205,-6.28619 z m 8.3305,-3.82445 c 0,-5.57648 -0.24809,-8.76709 -0.81627,-10.49772 l -0.81627,-2.4863 -0.68399,3.43992 c -0.3762,1.89196 -1.15653,4.81337 -1.73407,6.49202 -1.03175,2.99884 -1.03175,3.10532 0,6.10417 0.57754,1.67864 1.35787,4.60005 1.73407,6.49201 l 0.68399,3.43992 0.81627,-2.4863 c 0.56818,-1.73063 0.81627,-4.92124 0.81627,-10.49772 z M 274.7355,153.1663 c 0,-1.13113 -0.0144,-1.13253 -0.8112,-0.079 -1.04957,1.38766 -1.05592,1.94701 -0.0176,1.54856 0.45582,-0.17492 0.82877,-0.83621 0.82877,-1.46954 z m -88.08694,-1.7767 c 5.21191,-4.24516 14.17256,-8.0038 19.08119,-8.0038 1.18351,0 2.15184,-0.24863 2.15184,-0.55251 0,-0.30388 -0.96833,-0.55251 -2.15184,-0.55251 -4.92854,0 -13.87045,-3.75959 -19.12892,-8.04267 l -3.10961,-2.53281 -3.41327,2.22698 c -1.8773,1.22483 -4.89691,3.72828 -6.71025,5.56319 l -3.29698,3.33622 3.02072,3.09481 c 2.37083,2.42897 9.55681,7.95702 10.34342,7.95702 0.0835,0 1.52967,-1.12226 3.2137,-2.49392 z m 91.43485,1.09566 c 1.60078,-0.82779 1.61749,-0.88058 0.78714,-2.4863 -0.92948,-1.79742 -1.36661,-1.97795 -2.36702,-0.97754 -0.65051,0.65052 -0.95559,4.30959 -0.35932,4.30959 0.16703,0 1.03968,-0.38058 1.9392,-0.84575 z m -45.71362,-2.40202 c -0.23989,-0.91734 -0.45328,-1.06788 -0.77525,-0.54692 -0.24489,0.39625 -0.17516,1.04305 0.15539,1.44134 0.80101,0.96515 1.02255,0.64547 0.61986,-0.89442 z m 57.77832,0.11922 6.29617,-0.33172 -4.08613,-1.28866 c -2.24737,-0.70876 -5.49605,-2.13787 -7.21929,-3.1758 l -3.13317,-1.88715 -1.73105,1.786 -1.73106,1.78599 0.9821,2.05949 c 0.89022,1.86681 1.13855,2.02788 2.65418,1.72154 0.91965,-0.18588 4.50535,-0.48724 7.96825,-0.66969 z m -59.4854,-1.98218 c 0.11275,-0.68373 -0.12865,-1.934 -0.53645,-2.77837 l -0.74145,-1.53522 -1.48803,1.76843 c -0.83887,0.99693 -1.22486,1.85617 -0.88476,1.96953 0.33181,0.1106 1.07364,0.55717 1.64853,0.99237 1.43915,1.08946 1.76497,1.02164 2.00216,-0.41674 z m 81.64358,-0.12196 c 3.53652,-0.94938 11.05023,-4.53917 11.05023,-5.27942 0,-0.70716 -8.57716,-4.70442 -11.66652,-5.437 -5.17821,-1.22791 -10.0514,-1.35573 -14.89303,-0.39064 -5.20326,1.03717 -12.94503,4.531 -12.94503,5.84203 0,1.17864 7.52156,4.74525 12.15525,5.76385 4.4767,0.98407 11.58563,0.76651 16.2991,-0.49882 z m -35.36075,-1.73892 c 0,-0.45582 -0.24863,-0.6751 -0.55251,-0.4873 -0.30388,0.18781 -0.55251,0.71442 -0.55251,1.17024 0,0.45582 0.24863,0.67511 0.55251,0.4873 0.30388,-0.18781 0.55251,-0.71441 0.55251,-1.17024 z m -49.82995,-1.29369 c 1.50985,-2.04218 1.49293,-2.66537 -0.12615,-4.64494 l -1.29535,-1.58376 -3.62664,1.45089 c -1.99465,0.79798 -5.13225,1.60825 -6.97246,1.80059 -1.8402,0.19234 -3.34582,0.5275 -3.34582,0.7448 0,0.2173 1.50088,0.55197 3.33529,0.7437 1.8344,0.19174 4.75581,0.94486 6.49201,1.67363 4.11254,1.72621 4.12652,1.72575 5.53912,-0.18491 z m 52.59251,-0.85114 1.29765,-1.38128 -1.29765,-1.38128 c -0.71371,-0.7597 -1.47598,-1.38128 -1.69395,-1.38128 -0.64305,0 -1.11807,2.64936 -0.74298,4.14384 0.19067,0.7597 0.52501,1.38128 0.74298,1.38128 0.21797,0 0.98024,-0.62158 1.69395,-1.38128 z m -48.62102,-1.49178 c 0,-0.89254 -0.16338,-1.05214 -0.61488,-0.60065 -0.33817,0.33817 -0.44782,0.88516 -0.24364,1.21552 0.57151,0.92473 0.85852,0.71917 0.85852,-0.61487 z m 61.27107,-5.63829 4.08613,-1.28865 -6.29617,-0.33173 c -3.4629,-0.18245 -7.0486,-0.48381 -7.96825,-0.66969 -1.51563,-0.30634 -1.76396,-0.14527 -2.65418,1.72154 l -0.9821,2.05949 1.73106,1.78599 1.73105,1.786 3.13317,-1.88715 c 1.72324,-1.03793 4.97192,-2.46704 7.21929,-3.1758 z m 38.9709,-1.24661 c 1.5408,-1.87224 3.23939,-4.15309 3.77467,-5.06856 l 0.97321,-1.66448 -2.43885,-1.99846 c -2.80926,-2.30198 -10.41272,-6.37356 -11.90227,-6.37356 -0.5548,0 -1.95191,1.15101 -3.10467,2.55781 -4.11424,5.02088 -11.36207,9.51471 -18.10928,11.22819 l -3.92546,0.99688 5.78303,-0.0241 c 7.0817,-0.0294 11.31261,0.97252 17.66202,4.18282 l 4.69635,2.37452 1.8949,-1.40351 c 1.0422,-0.77193 3.15555,-2.93534 4.69635,-4.80758 z m -158.12215,2.33548 c 2.0437,-1.9552 5.05748,-4.35739 6.69731,-5.33821 l 2.98151,-1.78332 -2.49439,-3.06244 c -1.37191,-1.68435 -3.4303,-4.99778 -4.57418,-7.36319 l -2.0798,-4.30075 -3.05349,2.5138 c -1.67942,1.38259 -4.09466,3.86336 -5.3672,5.51281 -2.69693,3.49571 -2.69155,4.37075 0.0626,10.19355 1.50033,3.17195 3.74181,7.18265 4.0142,7.18265 0.0537,0 1.76971,-1.59971 3.8134,-3.5549 z m 46.35197,1.90153 c 4.68382,-1.4706 5.30351,-1.88872 4.40456,-2.97188 -1.59148,-1.91763 -8.37348,-5.99358 -12.22673,-7.34822 -7.41216,-2.60581 -17.62549,-2.32423 -24.70954,0.68122 l -2.0748,0.88025 2.46535,2.20811 c 2.99811,2.68528 10.25124,6.23784 14.38625,7.04634 1.67135,0.32679 3.53608,0.70819 4.14384,0.84756 2.23993,0.51364 10.19818,-0.27181 13.61107,-1.34338 z m 10.57557,0.13396 c 0.66243,-1.37263 0.70582,-4.00571 0.066,-4.00571 -0.20337,0 -2.35248,1.25184 -3.46004,2.01544 -0.17729,0.12223 2.21197,3.39898 2.53682,3.47911 0.0682,0.0168 0.45391,-0.65317 0.85721,-1.48884 z m 117.96984,-3.86182 c 2.0662,-7.95319 2.03286,-8.94501 -0.46397,-13.80091 -1.21594,-2.36478 -3.06549,-5.29413 -4.1101,-6.50965 -1.82052,-2.11837 -1.90017,-2.15229 -1.92006,-0.81766 -0.0293,1.96683 -2.07114,9.11098 -3.28963,11.51001 l -1.02365,2.01541 2.60719,2.90365 c 1.43394,1.597 3.45644,4.36704 4.49443,6.15564 1.038,1.7886 2.0458,3.15733 2.23957,3.04162 0.19376,-0.11571 0.85357,-2.13986 1.46622,-4.49811 z m -71.64909,1.90731 c -0.45122,-0.45122 -0.61467,-0.38939 -0.61467,0.23251 0,0.46596 0.18129,1.02848 0.40287,1.25006 0.22158,0.22158 0.49818,0.11695 0.61467,-0.23251 0.11649,-0.34947 -0.0648,-0.91199 -0.40287,-1.25006 z m -116.62764,-7.51984 c 1.71564,-3.21886 1.734,-3.33401 1.14087,-7.15681 -0.33156,-2.13692 -0.62039,-5.20515 -0.64186,-6.81829 l -0.039,-2.93298 -1.11352,2.4863 c -2.56967,5.7376 -4.31073,16.26316 -3.48547,21.07133 l 0.41371,2.41042 0.99081,-2.89424 c 0.54494,-1.59183 1.77547,-4.3664 2.73449,-6.16573 z m 68.29363,5.42358 c 2.12995,-1.31638 2.06042,-1.09449 1.22091,-3.89655 l -0.63997,-2.13602 -4.74702,-0.0135 c -4.1717,-0.0119 -6.70519,-0.34456 -10.82465,-1.42145 -0.60776,-0.15888 0.63539,0.58651 2.76256,1.65641 2.12717,1.06991 5.23505,3.06438 6.90639,4.43217 1.67135,1.36779 3.13378,2.49636 3.24986,2.50795 0.11607,0.0116 1.04844,-0.49646 2.07192,-1.12901 z m 50.74937,-0.49047 c 0.83035,-1.60572 0.81364,-1.6585 -0.78714,-2.4863 -0.89952,-0.46516 -1.77217,-0.84575 -1.9392,-0.84575 -0.59627,0 -0.29119,3.65907 0.35932,4.30959 1.00041,1.00041 1.43754,0.81988 2.36702,-0.97754 z m -46.16477,-1.32778 c 0.0214,-0.26512 -0.31933,-0.18479 -0.75709,0.17852 -0.43776,0.36331 -0.64292,1.0593 -0.4559,1.54666 0.29319,0.76405 0.39748,0.73946 0.75709,-0.17852 0.22939,-0.58554 0.43454,-1.28154 0.4559,-1.54666 z m 67.169,-0.67458 c 5.4247,-1.27862 11.0338,-4.44558 15.69164,-8.85967 2.97927,-2.82337 4.02973,-4.1537 3.61675,-4.58031 -0.32011,-0.33068 -2.58757,-0.85272 -5.03881,-1.16008 -5.16055,-0.64708 -10.69885,-0.0501 -16.10717,1.73624 -4.47959,1.47957 -10.96229,5.81736 -14.16447,9.47794 -2.44303,2.79275 -2.47352,2.87331 -1.26214,3.33473 3.7307,1.42104 11.35639,1.44363 17.2642,0.0512 z m -67.2011,-0.96797 c 0.33929,-0.40881 0.76821,-1.49992 0.95316,-2.42468 l 0.33628,-1.68139 -2.18661,0.58364 c -2.16723,0.57846 -2.1816,0.59995 -1.62157,2.42469 0.59603,1.94206 1.49342,2.33317 2.51874,1.09774 z m 41.44154,-1.50862 c -1.06599,-0.65882 -1.21485,-0.22891 -0.3849,1.11169 0.61872,0.99941 0.75802,1.03844 0.92141,0.25814 0.10587,-0.50561 -0.13556,-1.12203 -0.53651,-1.36983 z m 8.26976,-0.67728 c 4.24994,-5.3343 10.75616,-9.47238 18.03145,-11.46833 3.78395,-1.03811 5.26424,-1.1561 11.03083,-0.87926 3.66322,0.17586 7.27375,0.39073 8.02341,0.47749 2.19872,0.25446 4.91768,-4.94895 7.47103,-14.29775 0.28272,-1.03516 -0.065,-1.34144 -2.59627,-2.28716 -3.38258,-1.26375 -10.50192,-2.509193 -12.76245,-2.232633 -1.3207,0.16158 -1.75178,0.682813 -2.89164,3.496313 -1.84806,4.56158 -5.88524,10.2976 -9.54116,13.55607 -5.44103,4.8495 -14.66655,8.79687 -20.61617,8.82113 -1.79873,0.007 -2.03805,0.18413 -2.34817,1.73477 -0.59335,2.96675 -0.39797,3.57183 1.45034,4.49171 2.50202,1.24521 2.67167,1.19476 4.7488,-1.41235 z m -93.56721,-1.81069 c 6.94157,-2.21656 13.64024,-2.35694 21.82638,-0.45741 0.7597,0.17628 0.0345,-0.33041 -1.61163,-1.12598 -6.80101,-3.28698 -13.31264,-9.21966 -16.66376,-15.18218 -0.6963,-1.23889 -1.49512,-2.25254 -1.77515,-2.25254 -2.70748,0 -14.66525,4.58708 -15.50662,5.94844 -0.83133,1.34513 7.07828,14.40175 8.76034,14.46095 0.30389,0.0107 2.54058,-0.61539 4.97044,-1.39128 z m 86.122,0.18167 c 0.73313,-2.7357 0.47645,-3.17694 -1.84813,-3.17694 -2.15148,0 -2.18492,0.0301 -1.63581,1.47438 0.51828,1.36319 1.97556,2.8867 2.80084,2.92814 0.19247,0.01 0.49987,-0.54184 0.6831,-1.22558 z m -38.88009,-0.13813 c 0.56333,-0.67876 0.52557,-0.82876 -0.2086,-0.82876 -0.49303,0 -0.89642,0.37294 -0.89642,0.82876 0,0.45583 0.0939,0.82877 0.20861,0.82877 0.11473,0 0.51811,-0.37294 0.89641,-0.82877 z m -8.28767,-0.21329 c 0,-0.26925 -1.01131,-2.004 -2.24735,-3.85498 -4.43496,-6.64141 -12.28114,-12.1796 -20.03361,-14.14063 -4.33443,-1.09642 -11.05704,-1.66455 -12.19052,-1.03022 -0.81221,0.45454 -0.67292,0.89311 1.20655,3.79887 4.32273,6.68316 12.83125,12.8292 20.55716,14.84924 3.34925,0.87571 12.70777,1.15388 12.70777,0.37772 z m 4.66038,-0.6018 c 1.23064,-0.46789 1.41725,-0.8652 1.41725,-3.01752 0,-2.44867 -0.0285,-2.48632 -2.34818,-3.11033 -12.2013,-3.28214 -22.03191,-13.518 -25.31633,-26.359943 -0.58776,-2.2981 -1.21296,-4.32283 -1.38934,-4.49939 -0.4813,-0.48178 -12.35264,-0.38638 -14.7327,0.11839 -1.99823,0.42379 -2.07158,0.52205 -2.06232,2.76256 0.0129,3.12948 1.34035,9.203583 2.66653,12.201633 l 1.08169,2.44535 5.16561,0.0408 c 5.63149,0.0445 11.40878,1.36223 15.85857,3.61711 6.12643,3.1045 12.38966,9.03593 15.06638,14.26823 1.11579,2.1811 2.05971,2.49618 4.59284,1.53308 z m 106.61375,-6.08122 c 0.71032,-2.28466 1.45316,-5.2193 1.65075,-6.52145 0.33674,-2.2192 0.22885,-2.49082 -1.72229,-4.33576 -2.04139,-1.93027 -9.87538,-7.38575 -10.60582,-7.38575 -0.20409,0 -0.66809,1.43797 -1.0311,3.19549 -0.36301,1.75752 -1.73507,5.33757 -3.04903,7.95566 l -2.38902,4.76016 3.90539,1.73153 c 2.14796,0.95234 5.39716,2.826 7.22045,4.1637 3.93985,2.89054 4.03075,2.83674 6.02067,-3.56358 z m -101.02755,3.60636 c 1.71523,-1.71523 1.72159,-2.51142 0.0201,-2.51142 -0.73485,0 -1.72937,-0.15091 -2.21004,-0.33537 -0.70951,-0.27226 -0.87396,0.0916 -0.87396,1.93379 0,2.69658 0.98641,2.99051 3.06393,0.913 z m 31.94411,0.5274 c -0.17492,-0.45583 -0.69482,-0.82877 -1.15534,-0.82877 -0.68163,0 -0.70942,0.15409 -0.14949,0.82877 0.3783,0.45582 0.8982,0.82876 1.15533,0.82876 0.25714,0 0.32441,-0.37294 0.1495,-0.82876 z m -102.07816,-5.69612 c 5.2363,-5.1348 5.50208,-5.50531 5.05336,-7.04452 -0.26051,-0.89357 -0.78297,-4.23528 -1.16103,-7.42604 l -0.68739,-5.80137 -2.90844,2.97119 c -1.59965,1.63415 -3.76389,4.24145 -4.80944,5.794 -1.77866,2.64115 -1.90099,3.11164 -1.90099,7.31129 0,3.79016 0.48152,9.61531 0.79483,9.61531 0.0507,0 2.57926,-2.43893 5.6191,-5.41986 z m 74.25277,2.91412 c 0,-0.65595 -1.57605,-0.16108 -1.86225,0.58474 -0.26346,0.68658 -0.12173,0.73387 0.76966,0.25681 0.60093,-0.3216 1.09259,-0.7003 1.09259,-0.84155 z m 36.00828,-4.03762 c 5.15948,-10.7865 14.31615,-17.57409 26.66028,-19.762513 2.40822,-0.42695 4.46038,-0.85805 4.56035,-0.95803 0.63878,-0.63878 1.30006,-7.17055 1.16562,-11.51335 l -0.15934,-5.14742 -5.52512,0.0249 c -3.53015,0.0159 -6.64237,0.3619 -8.61939,0.95829 l -3.09426,0.93344 -0.3324,4.56682 c -0.65304,8.97219 -4.02057,16.240043 -10.58675,22.848443 -3.36945,3.39112 -5.40367,4.92343 -8.4351,6.35388 l -3.99483,1.88506 0.32911,2.21004 c 0.44583,2.99384 0.49558,3.04174 3.13494,3.01793 l 2.31556,-0.0209 z m 6.17911,4.56251 c 9.14828,-2.36018 18.18458,-9.84746 22.40295,-18.56261 1.24496,-2.57208 2.26357,-4.86007 2.26357,-5.08441 0,-0.633763 -4.81016,0.21263 -9.46481,1.66541 -5.30359,1.65532 -11.50757,5.66809 -15.24321,9.85938 -2.65018,2.97343 -6.14282,8.80899 -7.03544,11.75491 -0.34298,1.13192 -0.19511,1.24315 1.65272,1.24315 1.11617,0 3.55707,-0.39413 5.42422,-0.87583 z m -15.11432,-1.01277 c 0,-2.60294 -0.43799,-3.01572 -2.52143,-2.3763 -2.28108,0.70009 -2.34506,1.07099 -0.44287,2.56726 1.93349,1.52089 2.9643,1.45448 2.9643,-0.19096 z m 80.07973,-3.38123 c -0.29526,-2.11564 -0.92581,-5.19775 -1.40125,-6.84915 -0.92967,-3.22915 -4.52011,-10.66175 -6.02278,-12.46779 l -0.9194,-1.105023 0.3587,1.105023 c 0.19728,0.60776 0.50675,3.70786 0.6877,6.88909 0.3286,5.77679 0.3321,5.78827 2.78343,9.11644 1.34993,1.83281 2.94283,4.28884 3.53978,5.45784 0.59695,1.169 1.18105,2.02977 1.298,1.91282 0.11695,-0.11695 -0.029,-1.94361 -0.32418,-4.05925 z m -85.32859,2.50727 c -0.18781,-0.30388 -0.88622,-0.54871 -1.55202,-0.54405 -0.98415,0.007 -1.05555,0.10862 -0.38177,0.54405 1.08851,0.70345 2.36854,0.70345 1.93379,0 z m -22.97415,-2.27801 c 0.37538,-1.2529 0.47689,-2.45289 0.22558,-2.66664 -0.2513,-0.21376 -1.74815,-1.31286 -3.32634,-2.44245 -5.25641,-3.76231 -9.59589,-9.92131 -12.11848,-17.199673 -1.38017,-3.98217 -1.53379,-5.17298 -1.55056,-12.01927 l -0.0186,-7.59917 -3.95671,-1.64719 c -5.11907,-2.13107 -11.67306,-3.32867 -12.33704,-2.25432 -1.06709,1.72659 -1.86634,8.26766 -1.73239,14.1779 l 0.0512,2.2607 3.29248,0.99688 c 7.75467,2.34793 15.12337,7.85931 19.68805,14.725573 2.40548,3.61836 5.15971,10.08727 5.18591,12.18025 0.006,0.51201 0.25413,1.56869 0.55049,2.34817 0.46485,1.22267 0.87005,1.41725 2.95135,1.41725 2.34791,0 2.43081,-0.061 3.09504,-2.27801 z m 4.20819,1.3857 c 1.79575,-1.17662 1.7183,-1.63789 -0.39894,-2.37596 -1.9789,-0.68985 -2.41826,-0.42995 -2.95637,1.74886 -0.32148,1.3017 -0.20554,1.51941 0.80912,1.51941 0.65139,0 1.79718,-0.40154 2.54619,-0.89231 z m -11.34592,-0.37289 c 0,-1.85641 -1.84083,-7.41582 -3.65154,-11.02787 -2.50474,-4.9965 -9.40115,-12.023873 -14.30509,-14.576733 -3.4459,-1.79385 -9.01601,-3.80294 -9.42091,-3.39804 -0.51192,0.51192 2.15356,8.646583 3.95905,12.082423 3.81372,7.25753 11.05583,13.54028 18.72802,16.24714 4.50154,1.5882 4.69047,1.61531 4.69047,0.67308 z m 14.60116,0.21796 c 0.91798,-0.35962 0.94257,-0.4639 0.17852,-0.75709 -0.48736,-0.18702 -1.18335,0.0181 -1.54666,0.45589 -0.71624,0.86302 -0.29995,0.95466 1.36814,0.3012 z m 7.79047,-1.13868 c -0.17961,-0.29061 -0.69154,-0.38832 -1.13763,-0.21714 -1.14211,0.43827 -1.00752,0.74552 0.32656,0.74552 0.6257,0 0.99068,-0.23777 0.81107,-0.52838 z m 5.45412,-1.26728 c -0.50227,-0.98761 -0.98434,-1.87769 -1.07127,-1.97793 -0.12989,-0.1498 -2.52126,1.1866 -3.56813,1.99401 -0.64738,0.4993 2.02188,1.77958 3.71025,1.77958 h 1.84238 z m -7.50179,0.42127 c 0.17414,-0.17415 -0.35824,-0.99149 -1.18308,-1.81633 l -1.4997,-1.4997 -1.31918,1.65441 c -0.93266,1.16967 -1.13221,1.78175 -0.68105,2.08899 0.65923,0.44894 4.12278,0.13285 4.68301,-0.42737 z m 12.73767,0.47656 c 1.66259,-0.33252 1.72695,-0.45029 1.73619,-3.17694 0.0156,-4.60821 1.47335,-10.25299 3.93985,-15.25628 3.01427,-6.114433 9.30405,-12.558723 15.31865,-15.694933 l 4.07402,-2.12434 -0.35558,-3.02538 c -0.38855,-3.30603 -2.82555,-11.17917 -3.92626,-12.68448 -0.64341,-0.87991 -0.96572,-0.84248 -4.73794,0.55023 -3.87951,1.43231 -11.00726,5.59477 -11.00726,6.42801 0,0.21957 0.49726,2.3435 1.10502,4.71983 2.97982,11.65097 -0.29233,24.515723 -8.45502,33.241653 -2.9387,3.14149 -3.16107,3.55135 -2.55732,4.71366 1.45198,2.79534 1.74309,2.93349 4.86565,2.30897 z m -17.93668,-2.45963 c 0.78672,-0.93495 1.4304,-1.88117 1.4304,-2.1027 0,-0.22153 -0.6415,-1.25913 -1.42555,-2.30578 -7.61537,-10.16602 -8.95442,-24.593633 -3.40238,-36.659103 l 1.75571,-3.81545 -3.24193,-2.89955 c -3.14392,-2.81189 -9.3685,-6.87368 -10.53374,-6.87368 -1.4991,0 -7.43691,11.72141 -7.41709,14.64156 0.005,0.70463 1.12545,1.90581 3.09289,3.31507 5.65417,4.05004 10.0889,10.22951 12.68841,17.68037 1.38657,3.974293 1.54192,5.154033 1.5403,11.696873 l -0.002,7.27677 1.67693,0.83744 c 2.26151,1.12937 2.21283,1.13942 3.83786,-0.79182 z m 10.65147,-2.43034 c -0.13905,-0.61523 -0.68409,-2.73158 -1.21119,-4.70301 -0.72822,-2.72367 -0.89689,-4.9792 -0.70236,-9.3927 0.40426,-9.171853 3.35241,-16.197793 9.78916,-23.329173 l 3.00764,-3.33221 -1.61683,-3.0881 c -1.82106,-3.47819 -7.29811,-10.59077 -8.15543,-10.59077 -1.725,0 -8.3492,6.33292 -11.14797,10.65778 -0.98889,1.5281 -0.98318,1.5613 0.66524,3.86758 7.63379,10.68033 8.99026,24.86595 3.50485,36.653013 l -1.57581,3.38611 1.70137,1.70138 1.70138,1.70137 2.14638,-1.20634 c 1.62931,-0.91572 2.08549,-1.47581 1.89357,-2.32493 z m 15.08267,1.50584 c 9.64638,-5.61511 16.16652,-16.133603 16.98482,-27.400423 l 0.31471,-4.33305 -2.71501,1.3758 c -6.69268,3.39144 -12.66969,9.36303 -16.05175,16.037213 -2.73982,5.40677 -4.6132,16.39238 -2.7954,16.39238 0.38677,0 2.30495,-0.93237 4.26263,-2.07192 z m -32.38423,-1.86473 c 0.61301,-3.06502 0.3677,-9.55565 -0.48894,-12.937 -1.96432,-7.753663 -7.5756,-16.188103 -13.66865,-20.545673 l -2.49216,-1.78231 -0.34265,1.71325 c -1.76832,8.84159 1.96814,21.576493 8.44385,28.779043 2.30693,2.56586 7.01558,6.45218 7.85791,6.48559 0.18993,0.008 0.50072,-0.76327 0.69064,-1.7129 z m -63.07208,-1.76428 c 2.34589,-1.12875 5.7024,-2.38288 7.4589,-2.78697 3.66342,-0.84276 3.62667,-0.71043 1.85514,-6.68014 -0.627,-2.11285 -1.3004,-5.407203 -1.49645,-7.320783 -0.19605,-1.91358 -0.56155,-3.47923 -0.81222,-3.47923 -1.15097,0 -6.65404,2.51004 -10.08467,4.59979 l -3.78664,2.30661 0.2788,4.972603 c 0.294,5.24372 1.34814,10.96568 1.95943,10.63591 0.19934,-0.10753 2.28181,-1.11905 4.62771,-2.24779 z m 86.23113,-2.53538 c 2.62303,-3.17797 5.64197,-9.25672 6.73734,-13.565863 0.46039,-1.81116 0.83707,-5.49153 0.83707,-8.1786 0,-4.9071 -1.34551,-12.56263 -2.20797,-12.56263 -0.25403,0 -1.83106,1.513 -3.50451,3.36223 -3.40336,3.76083 -6.48554,9.56884 -7.78724,14.67415 -1.42154,5.5753 -0.9461,16.188023 0.88166,19.680473 0.4786,0.9145 0.58564,0.91768 1.72964,0.0514 0.67071,-0.5079 2.16201,-2.06541 3.31401,-3.46113 z m -12.35506,0.36302 c 0.85205,-1.89926 1.87157,-4.82067 2.26561,-6.49201 0.98411,-4.174143 0.88151,-11.703793 -0.2183,-16.022843 -1.01693,-3.99356 -4.04166,-10.47574 -6.02678,-12.91576 l -1.29298,-1.58927 -1.46196,3.25769 c -4.24435,9.45767 -4.2978,20.23196 -0.14546,29.324613 1.32374,2.89869 4.51629,7.89077 5.04633,7.89077 0.1564,0 0.98149,-1.55393 1.83354,-3.45319 z m 87.09957,-9.31169 c -0.81879,-3.996093 -0.92712,-4.172493 -4.88489,-7.954303 -2.22614,-2.12717 -4.87959,-4.33788 -5.89657,-4.91269 l -1.84904,-1.04511 0.43894,1.59762 c 0.24142,0.87869 0.46753,4.39365 0.50249,7.81101 l 0.0636,6.213403 3.4216,2.02413 c 1.88188,1.11328 4.61295,3.07413 6.06905,4.35746 l 2.64745,2.33331 0.16238,-3.16906 c 0.0893,-1.74298 -0.21441,-5.00808 -0.67496,-7.25577 z M 172.33147,94.268067 c 0.35167,-2.00592 1.03806,-4.74259 1.52531,-6.08149 0.48725,-1.3389 0.78371,-2.53656 0.65881,-2.66146 -0.45958,-0.45958 -5.92183,6.85083 -7.82502,10.47259 -1.99067,3.78826 -4.11493,9.347713 -4.11493,10.769283 0,0.42844 2.0512,-1.38794 4.55822,-4.03641 4.38443,-4.631803 4.5826,-4.954443 5.19761,-8.462513 z m 155.0969,6.436213 c 1.02404,-3.821183 -0.14725,-13.471133 -1.79982,-14.828313 -1.22134,-1.00303 -8.64792,-3.53104 -11.94098,-4.06471 l -2.21005,-0.35816 v 5.9652 c 0,3.28086 -0.19553,7.10504 -0.43452,8.49818 l -0.43453,2.53298 4.85462,0.60048 c 2.67004,0.33026 6.22208,1.084213 7.89343,1.675453 1.67135,0.59124 3.19629,1.10807 3.38876,1.14851 0.19247,0.0404 0.49986,-0.48589 0.68309,-1.16962 z M 176.77514,95.042037 c 1.76254,-1.06304 4.72516,-2.43966 6.5836,-3.05917 l 3.37898,-1.12637 0.35424,-3.45754 c 0.19483,-1.90165 0.8498,-5.24585 1.45549,-7.43157 0.60569,-2.18571 1.10126,-4.11407 1.10126,-4.28524 0,-0.69011 -8.98328,4.41977 -11.06882,6.29619 -1.69395,1.52409 -2.56768,2.97473 -3.60041,5.97769 -1.36932,3.98172 -2.33702,9.0188 -1.73264,9.0188 0.17803,0 1.76577,-0.86976 3.5283,-1.93279 z m 160.64882,-3.4542 c -2.22537,-5.32914 -7.04418,-11.9738 -11.20692,-15.45322 -3.9793,-3.32611 -4.05314,-3.25823 -1.76847,1.62571 1.17656,2.51511 2.30897,5.25526 2.51647,6.08921 0.2633,1.05819 1.48614,2.25506 4.04762,3.96167 2.01869,1.34497 4.4006,3.2111 5.29312,4.14697 0.89253,0.93587 1.70392,1.70158 1.80308,1.70158 0.0992,0 -0.20904,-0.93237 -0.6849,-2.07192 z m -137.96817,-1.97853 5.66324,0.0934 0.009,-4.51348 c 0.005,-2.48242 0.36885,-6.00527 0.8091,-7.82856 1.1328,-4.69146 1.13144,-4.69635 -1.29786,-4.69635 -2.68634,0 -11.47908,1.51374 -12.75303,2.19554 -1.16706,0.6246 -3.20422,7.26738 -3.69893,12.06152 l -0.35942,3.48309 2.98252,-0.44427 c 1.64038,-0.24435 5.53097,-0.40225 8.64576,-0.35088 z m 125.85345,-7.49865 c -1.36257,-3.86192 -4.7896,-9.97712 -6.22331,-11.10487 -1.45998,-1.14842 -8.69333,-4.05825 -11.64799,-4.68575 l -1.82953,-0.38854 1.63946,3.24775 c 0.9017,1.78626 2.17613,5.01461 2.83206,7.17411 l 1.19259,3.92636 5.0751,1.21117 c 2.79131,0.66615 6.06963,1.65468 7.28516,2.19673 1.21552,0.54206 2.27485,0.93297 2.35407,0.86869 0.0792,-0.0643 -0.22571,-1.16483 -0.67761,-2.44565 z m -26.81574,-0.85783 c 1.97523,-0.46036 5.39389,-0.84069 7.59703,-0.84519 2.20314,-0.005 4.00571,-0.11964 4.00571,-0.2559 0,-1.08391 -3.07329,-9.42299 -4.28536,-11.62791 -1.48206,-2.69608 -1.59066,-2.76952 -4.74678,-3.2103 -2.82423,-0.39443 -11.632,0.20518 -12.26155,0.83473 -0.12134,0.12134 0.51006,2.10237 1.40312,4.40228 0.89306,2.29991 1.91726,5.95899 2.27601,8.13128 0.52814,3.19801 0.82051,3.89809 1.53638,3.67882 0.48626,-0.14894 2.50021,-0.64746 4.47544,-1.10781 z m -110.80304,-5.86467 c 2.50753,-1.03931 3.08738,-1.58476 4.28919,-4.03473 0.76433,-1.55812 2.30996,-4.03838 3.43474,-5.51168 1.12479,-1.47329 1.94405,-2.77974 1.82058,-2.9032 -0.31475,-0.31476 -6.7131,3.87762 -9.59676,6.28806 -2.4515,2.0492 -7.27809,7.72614 -8.40647,9.88751 -0.55235,1.05802 -0.25884,0.97927 2.46612,-0.66162 1.7012,-1.02441 4.39788,-2.40336 5.9926,-3.06434 z m 42.48939,-10.72641 c 1.82373,-2.74674 1.91497,-3.06085 1.02708,-3.53604 -1.52603,-0.8167 -7.24047,-2.1451 -10.98091,-2.55265 l -3.40215,-0.3707 -2.3412,2.94901 c -1.28765,1.62196 -3.17704,4.68595 -4.19865,6.80887 l -1.85745,3.85985 3.45696,0.65848 c 3.71081,0.70684 8.70614,2.33419 11.23954,3.66158 l 1.56336,0.81912 1.74594,-4.6415 c 0.96027,-2.55282 2.64664,-5.99803 3.74748,-7.65602 z m -34.11479,7.98856 c 1.29847,-0.29099 4.37558,-0.62441 6.83804,-0.74093 l 4.47719,-0.21186 1.84681,-3.79857 c 1.01574,-2.08921 2.73635,-5.02928 3.82357,-6.53348 1.08723,-1.5042 1.88003,-2.83165 1.7618,-2.94989 -0.36751,-0.3675 -8.16877,0.97152 -11.07472,1.90088 -1.5194,0.48593 -3.34889,1.41179 -4.06553,2.05746 -1.56936,1.41397 -5.64725,7.07662 -6.97115,9.68029 -0.9093,1.78831 -0.90815,1.85861 0.0246,1.50069 0.53821,-0.20653 2.04095,-0.6136 3.33941,-0.90459 z m 85.50699,-5.31808 c 2.46095,-0.99227 4.54876,-2.02704 4.63958,-2.2995 0.25513,-0.76538 -4.62544,-6.99818 -7.37521,-9.418622 -2.31797,-2.040363 -2.58821,-2.1377 -4.6493,-1.674604 -2.86166,0.642972 -9.02342,2.971431 -11.0834,4.188296 l -1.62613,0.96057 2.13061,2.22975 c 2.40101,2.51274 4.87763,6.07278 6.63947,9.54396 l 1.1885,2.34159 2.83071,-2.03366 c 1.55689,-1.11851 4.84422,-2.84552 7.30517,-3.83778 z m -32.49032,2.15514 c 1.48726,-2.27366 6.30866,-7.2771 8.69253,-9.02072 l 2.10041,-1.5363 -2.92918,-2.209333 c -2.77206,-2.090823 -9.46058,-5.603278 -10.67172,-5.604221 -1.60473,-0.0013 -11.87826,8.295094 -11.86506,9.581594 0.004,0.35169 1.49261,1.4557 3.30891,2.45335 1.8163,0.99765 4.73476,3.1641 6.48545,4.81433 1.75071,1.65023 3.34098,3.00948 3.53394,3.02056 0.19296,0.0111 0.79809,-0.66358 1.34472,-1.49926 z m 67.64174,-1.8011 c -1.15141,-2.15143 -8.61839,-7.75748 -13.53362,-10.16076 -7.25239,-3.546022 -7.88274,-3.520776 -4.21193,0.16869 1.7088,1.71747 3.71939,4.02767 4.468,5.13377 1.07022,1.58131 1.8377,2.08597 3.59132,2.36148 1.22663,0.19271 3.97064,1.05732 6.09781,1.92134 2.12717,0.86403 3.93849,1.59683 4.02515,1.62845 0.0867,0.0316 -0.10987,-0.44221 -0.43673,-1.05297 z m -18.98163,-3.30963 c 3.1865,0 5.17175,-0.21888 5.17175,-0.57021 0,-0.99503 -8.55057,-9.291927 -10.24957,-9.945486 -1.9992,-0.769041 -11.17079,-1.377537 -13.17629,-0.87419 l -1.4624,0.367039 2.81037,2.810365 c 1.5457,1.545702 3.71756,4.176712 4.82637,5.846692 l 2.016,3.03632 2.44601,-0.33527 c 1.34531,-0.18439 4.77331,-0.33526 7.61776,-0.33526 z m -60.862,-7.655157 c 2.19303,-2.083166 4.77037,-4.250129 5.72742,-4.815474 0.95706,-0.565345 1.7401,-1.190575 1.7401,-1.389401 0,-0.482887 -5.41204,-1.508474 -10.30343,-1.952511 -3.83822,-0.34843 -4.04163,-0.3026 -7.21641,1.625979 -3.8142,2.317001 -8.56827,6.362659 -8.19208,6.971355 0.14344,0.232075 1.82273,0.573669 3.73178,0.759099 1.90905,0.18543 4.83846,0.81387 6.50981,1.39653 1.67135,0.58265 3.25857,1.08921 3.52714,1.12568 0.26858,0.0365 2.28263,-1.63809 4.47567,-3.721257 z m -31.75716,2.128697 c 1.06158,-0.30462 4.0201,-0.81369 6.5745,-1.13127 4.4182,-0.54929 4.78141,-0.701436 7.45891,-3.124435 1.548,-1.400866 3.93338,-3.279104 5.30085,-4.173864 l 2.4863,-1.626836 -2.62937,0.36712 c -5.58523,0.779825 -12.6454,3.736342 -18.22794,7.633132 -3.9996,2.791843 -4.07298,2.948493 -0.96325,2.056153 z m 58.85277,-2.296372 c 1.52708,-0.804439 4.61598,-2.021341 6.86423,-2.704226 l 4.08774,-1.241611 -1.33911,-1.106391 c -2.24956,-1.858612 -10.22823,-5.357824 -12.21655,-5.357824 -2.37037,0 -7.46424,1.317091 -11.03536,2.853346 l -2.7529,1.184265 3.81645,2.00824 c 2.09904,1.104533 5.03821,2.911899 6.53147,4.016369 1.49327,1.104471 2.83935,1.963654 2.99129,1.909284 0.15194,-0.0544 1.52567,-0.757013 3.05274,-1.561452 z m 22.66479,-6.39074 c -4.93338,-2.488502 -10.76867,-4.019205 -16.60109,-4.354768 l -4.97261,-0.286093 4.64617,2.490369 c 2.55539,1.369703 4.99118,2.835392 5.41288,3.257086 0.58002,0.580023 2.50538,0.755606 7.90712,0.72109 l 7.14041,-0.04562 z m -29.88326,-4.339937 c 1.88691,-0.319971 2.05079,-0.445724 1.06012,-0.8135 -2.38618,-0.885841 -9.96129,-1.191118 -14.04161,-0.565875 -8.72358,1.33675 -13.0972,3.304848 -7.54507,3.395229 1.27356,0.02073 3.93166,0.455834 5.90689,0.966895 l 3.59133,0.929201 4.3982,-1.766736 c 2.41901,-0.971705 5.40257,-1.937051 6.63014,-2.145214 z"
       id="path854" />
  </g>
</svg>
